<?xml version="1.0" standalone="no"?>
<!DOCTYPE svg PUBLIC "-//W3C//DTD SVG 20010904//EN"
 "http://www.w3.org/TR/2001/REC-SVG-20010904/DTD/svg10.dtd">
<svg version="1.0" xmlns="http://www.w3.org/2000/svg"
 width="370.000000pt" height="290.000000pt" viewBox="0 0 370.000000 290.000000"
 preserveAspectRatio="xMidYMid meet">

<g transform="translate(0.000000,290.000000) scale(0.100000,-0.100000)"
fill="#000000" stroke="none">
<path d="M1765 2639 c-429 -63 -806 -356 -956 -744 -68 -175 -82 -252 -83
-450 0 -163 2 -190 26 -285 115 -457 466 -800 926 -904 l62 -14 0 424 0 424
-155 0 -155 0 0 175 0 175 155 0 155 0 0 164 c0 176 7 230 40 319 25 66 101
155 166 193 93 55 251 74 419 52 l100 -13 3 -146 3 -146 -113 -5 c-119 -5
-154 -15 -195 -60 -36 -39 -43 -73 -43 -219 l0 -139 165 0 c158 0 165 -1 165
-20 0 -20 -36 -264 -46 -307 -4 -23 -7 -23 -144 -23 l-140 0 0 -424 0 -424 63
14 c233 53 440 167 607 336 361 363 451 912 226 1373 -125 255 -301 433 -553
559 -208 104 -472 148 -698 115z"/>
</g>
</svg>
