<?xml version="1.0" standalone="no"?>
<!DOCTYPE svg PUBLIC "-//W3C//DTD SVG 20010904//EN"
 "http://www.w3.org/TR/2001/REC-SVG-20010904/DTD/svg10.dtd">
<svg version="1.0" xmlns="http://www.w3.org/2000/svg"
 width="313.000000pt" height="268.000000pt" viewBox="0 0 313.000000 268.000000"
 preserveAspectRatio="xMidYMid meet">

<g transform="translate(0.000000,268.000000) scale(0.100000,-0.100000)"
fill="#000000" stroke="none">
<path d="M1335 2321 c-149 -9 -228 -27 -317 -72 -129 -65 -233 -211 -262 -369
-35 -183 -28 -967 9 -1105 56 -203 209 -341 427 -382 122 -23 914 -23 1036 0
218 41 372 179 426 382 39 143 46 903 11 1100 -40 227 -202 389 -432 431 -93
17 -697 27 -898 15z m962 -356 c59 -39 66 -124 13 -177 -24 -23 -37 -28 -78
-28 -60 0 -97 25 -111 76 -10 37 -1 85 21 112 35 41 106 49 155 17z m-468
-130 c222 -59 381 -261 381 -485 0 -220 -159 -427 -369 -482 -183 -47 -369 6
-495 143 -66 71 -100 134 -121 221 -74 314 160 614 480 617 39 0 94 -6 124
-14z"/>
<path d="M1593 1652 c-127 -52 -207 -170 -206 -304 1 -103 47 -194 128 -256
63 -48 122 -65 213 -60 97 4 156 32 222 105 110 121 111 303 2 424 -67 75
-144 109 -242 108 -46 0 -91 -7 -117 -17z"/>
</g>
</svg>
