<?xml version="1.0" encoding="UTF-8" standalone="no"?>
<svg
   viewBox="0 0 560 222"
   height="222"
   width="560"
   version="1.1"
   id="svg22"
   sodipodi:docname="lei-acesso-informacao-logo.svg"
   style="shape-rendering:geometricPrecision;text-rendering:geometricPrecision"
   inkscape:export-filename="C:\Users\suitedoalex\sites\lei-acesso-informacao-logo-0.png"
   inkscape:export-xdpi="561.73712"
   inkscape:export-ydpi="561.73712"
   inkscape:version="0.92.4 (5da689c313, 2019-01-14)"
   xmlns:inkscape="http://www.inkscape.org/namespaces/inkscape"
   xmlns:sodipodi="http://sodipodi.sourceforge.net/DTD/sodipodi-0.dtd"
   xmlns="http://www.w3.org/2000/svg"
   xmlns:svg="http://www.w3.org/2000/svg"
   xmlns:rdf="http://www.w3.org/1999/02/22-rdf-syntax-ns#"
   xmlns:cc="http://creativecommons.org/ns#"
   xmlns:dc="http://purl.org/dc/elements/1.1/">
  <metadata
     id="metadata26">
    <rdf:RDF>
      <cc:Work
         rdf:about="">
        <dc:format>image/svg+xml</dc:format>
        <dc:type
           rdf:resource="http://purl.org/dc/dcmitype/StillImage" />
      </cc:Work>
    </rdf:RDF>
  </metadata>
  <sodipodi:namedview
     pagecolor="#ffffff"
     bordercolor="#666666"
     borderopacity="1"
     objecttolerance="10"
     gridtolerance="10"
     guidetolerance="10"
     inkscape:pageopacity="0"
     inkscape:pageshadow="2"
     inkscape:window-width="1600"
     inkscape:window-height="837"
     id="namedview24"
     showgrid="false"
     inkscape:zoom="0.33867521"
     inkscape:cx="320.39591"
     inkscape:cy="777.17436"
     inkscape:window-x="-8"
     inkscape:window-y="-8"
     inkscape:window-maximized="1"
     inkscape:current-layer="g18"
     inkscape:showpageshadow="0"
     inkscape:pagecheckerboard="0"
     inkscape:deskcolor="#505050" />
  <defs
     id="defs4">
    <style
       type="text/css"
       id="style2"><![CDATA[.a {font: normal bold 11px Open Sans, sans-serif;}]]></style>
  </defs>
  <g
     id="g18"
     style="fill:#00692c;fill-opacity:1"
     transform="translate(0,653.89233)">
    <g
       id="g1"
       transform="translate(-69.893332,-238.32192)">
      <path
         style="fill:#f6a800;stroke-width:4.98948;shape-rendering:geometricPrecision;text-rendering:geometricPrecision"
         d="M 182.81836,240.23047 A 109.76865,109.76865 0 0 0 73.048828,350 109.76865,109.76865 0 0 0 97.341797,418.81055 L 84.082031,445.32812 A 9.9799665,9.9799665 0 0 0 96.9375,458.96289 l 31.69922,-13.58594 A 109.76865,109.76865 0 0 0 182.81836,459.76953 109.76865,109.76865 0 0 0 292.58594,350 109.76865,109.76865 0 0 0 182.81836,240.23047 Z"
         transform="translate(0,-653.89233)"
         id="circle6"
         inkscape:export-filename="C:\Users\suitedoalex\sites\lei-acesso-informacao-logo-5.png"
         inkscape:export-xdpi="174.91348"
         inkscape:export-ydpi="174.91348" />
      <circle
         r="22.452679"
         cy="-363.76611"
         cx="182.81818"
         id="circle10"
         style="fill:#00692c;stroke-width:4.98948;shape-rendering:geometricPrecision;text-rendering:geometricPrecision"
         inkscape:export-filename="C:\Users\suitedoalex\sites\lei-acesso-informacao-logo-5.png"
         inkscape:export-xdpi="174.91348"
         inkscape:export-ydpi="174.91348" />
      <path
         d="m 341.46086,-314.40851 -2.8407,-9.32604 H 324.3363 l -2.84071,9.32604 h -8.95084 l 13.82826,-39.34089 h 10.15684 l 13.88185,39.34089 z m -4.82383,-16.29376 q -3.93945,-12.67593 -4.44863,-14.33748 -0.48248,-1.66149 -0.69678,-2.62626 -0.88433,3.43026 -5.06497,16.96374 z"
         style="font-style:normal;font-variant:normal;font-weight:bold;font-stretch:normal;font-size:11px;line-height:normal;font-family:'Open Sans', sans-serif;fill:#00692c;fill-opacity:1;stroke-width:4.98948;shape-rendering:geometricPrecision;text-rendering:geometricPrecision"
         id="path880"
         inkscape:connector-curvature="0" />
      <path
         d="m 366.83947,-313.87248 q -13.98907,0 -13.98907,-15.35584 0,-7.6377 3.80548,-11.65758 3.80544,-4.04663 10.90717,-4.04663 5.19904,0 9.3261,2.03671 l -2.41192,6.32458 q -1.92954,-0.77716 -3.59109,-1.25955 -1.66154,-0.50918 -3.32309,-0.50918 -6.37815,0 -6.37815,9.05806 0,8.79003 6.37815,8.79003 2.35833,0 4.36825,-0.61636 2.00991,-0.64319 4.01987,-1.98312 v 6.99452 q -1.98312,1.25959 -4.01987,1.74197 -2.00992,0.48248 -5.09183,0.48248 z"
         style="font-style:normal;font-variant:normal;font-weight:bold;font-stretch:normal;font-size:11px;line-height:normal;font-family:'Open Sans', sans-serif;fill:#00692c;fill-opacity:1;stroke-width:4.98948;shape-rendering:geometricPrecision;text-rendering:geometricPrecision"
         id="path882"
         inkscape:connector-curvature="0" />
      <path
         d="m 395.27325,-339.11719 q -2.59953,0 -4.07346,1.66155 -1.47395,1.63477 -1.68834,4.66303 h 11.46997 q -0.0534,-3.02826 -1.58116,-4.66303 -1.52754,-1.66155 -4.12701,-1.66155 z m 1.15232,25.24471 q -7.2357,0 -11.30916,-3.99309 -4.07347,-3.99304 -4.07347,-11.30916 0,-7.53054 3.75189,-11.63074 3.77865,-4.12706 10.42478,-4.12706 6.35136,0 9.88887,3.61788 3.53744,3.61782 3.53744,9.99598 v 3.96624 h -19.32209 q 0.13418,3.48391 2.06357,5.44023 1.92953,1.95633 5.41338,1.95633 2.7067,0 5.11861,-0.56281 2.41192,-0.56276 5.03819,-1.79551 v 6.32457 q -2.14394,1.07194 -4.58259,1.58111 -2.43872,0.53603 -5.94942,0.53603 z"
         style="font-style:normal;font-variant:normal;font-weight:bold;font-stretch:normal;font-size:11px;line-height:normal;font-family:'Open Sans', sans-serif;fill:#00692c;fill-opacity:1;stroke-width:4.98948;shape-rendering:geometricPrecision;text-rendering:geometricPrecision"
         id="path884"
         inkscape:connector-curvature="0" />
      <path
         d="m 436.24892,-323.30576 q 0,4.60944 -3.21592,7.02136 -3.18907,2.41192 -9.56722,2.41192 -3.2695,0 -5.5742,-0.45555 -2.30475,-0.42859 -4.31466,-1.28639 v -6.75331 q 2.27796,1.07195 5.11862,1.79552 2.86751,0.72357 5.03823,0.72357 4.44862,0 4.44862,-2.57268 0,-0.96477 -0.58961,-1.55437 -0.58956,-0.61636 -2.03671,-1.36673 -1.44714,-0.77715 -3.85905,-1.79556 -3.45707,-1.44715 -5.09177,-2.67991 -1.60797,-1.23275 -2.35833,-2.81386 -0.72358,-1.60796 -0.72358,-3.93945 0,-3.99302 3.08191,-6.16375 3.10865,-2.19752 8.79001,-2.19752 5.41344,0 10.53198,2.35827 l -2.46546,5.89578 q -2.25112,-0.96477 -4.20745,-1.58112 -1.95633,-0.6164 -3.99302,-0.6164 -3.61788,0 -3.61788,1.95633 0,1.09878 1.15237,1.90274 1.17916,0.80395 5.11861,2.38512 3.51062,1.42036 5.14542,2.65311 1.63472,1.23275 2.41187,2.84066 0.77722,1.60796 0.77722,3.83227 z"
         style="font-style:normal;font-variant:normal;font-weight:bold;font-stretch:normal;font-size:11px;line-height:normal;font-family:'Open Sans', sans-serif;fill:#00692c;fill-opacity:1;stroke-width:4.98948;shape-rendering:geometricPrecision;text-rendering:geometricPrecision"
         id="path886"
         inkscape:connector-curvature="0" />
      <path
         d="m 463.58383,-323.30576 q 0,4.60944 -3.21585,7.02136 -3.18909,2.41192 -9.56728,2.41192 -3.26943,0 -5.5742,-0.45555 -2.30469,-0.42859 -4.31461,-1.28639 v -6.75331 q 2.27794,1.07195 5.11867,1.79552 2.86741,0.72357 5.03816,0.72357 4.44862,0 4.44862,-2.57268 0,-0.96477 -0.58955,-1.55437 -0.58955,-0.61636 -2.03675,-1.36673 -1.44712,-0.77715 -3.85906,-1.79556 -3.45704,-1.44715 -5.09176,-2.67991 -1.60796,-1.23275 -2.35828,-2.81386 -0.72364,-1.60796 -0.72364,-3.93945 0,-3.99302 3.08192,-6.16375 3.10867,-2.19752 8.79005,-2.19752 5.41337,0 10.53196,2.35827 l -2.46546,5.89578 q -2.2511,-0.96477 -4.20743,-1.58112 -1.95633,-0.6164 -3.99308,-0.6164 -3.61787,0 -3.61787,1.95633 0,1.09878 1.15234,1.90274 1.17918,0.80395 5.11859,2.38512 3.5107,1.42036 5.14542,2.65311 1.6348,1.23275 2.41194,2.84066 0.77715,1.60796 0.77715,3.83227 z"
         style="font-style:normal;font-variant:normal;font-weight:bold;font-stretch:normal;font-size:11px;line-height:normal;font-family:'Open Sans', sans-serif;fill:#00692c;fill-opacity:1;stroke-width:4.98948;shape-rendering:geometricPrecision;text-rendering:geometricPrecision"
         id="path888"
         inkscape:connector-curvature="0" />
      <path
         d="m 476.52773,-329.44272 q 0,4.44861 1.4472,6.72652 1.47395,2.27795 4.77022,2.27795 3.26944,0 4.6898,-2.2511 1.44712,-2.27796 1.44712,-6.75337 0,-4.44863 -1.44712,-6.67293 -1.44712,-2.22432 -4.74346,-2.22432 -3.26944,0 -4.71656,2.22432 -1.4472,2.1975 -1.4472,6.67293 z m 20.71569,0 q 0,7.31612 -3.85907,11.44318 -3.85906,4.12706 -10.74645,4.12706 -4.31461,0 -7.61088,-1.87595 -3.29627,-1.90274 -5.065,-5.44019 -1.76873,-3.5375 -1.76873,-8.2541 0,-7.34292 3.83223,-11.41639 3.83224,-4.07342 10.77322,-4.07342 4.31461,0 7.61088,1.8759 3.29627,1.87595 5.065,5.3866 1.7688,3.5107 1.7688,8.22731 z"
         style="font-style:normal;font-variant:normal;font-weight:bold;font-stretch:normal;font-size:11px;line-height:normal;font-family:'Open Sans', sans-serif;fill:#00692c;fill-opacity:1;stroke-width:4.98948;shape-rendering:geometricPrecision;text-rendering:geometricPrecision"
         id="path890"
         inkscape:connector-curvature="0" />
      <path
         d="m 537.28104,-314.40851 -1.58113,-4.07341 h -0.2145 q -2.06358,2.59948 -4.2611,3.61782 -2.17068,0.99162 -5.68138,0.99162 -4.31461,0 -6.80697,-2.46556 -2.46546,-2.4655 -2.46546,-7.02129 0,-4.77025 3.3231,-7.02136 3.34986,-2.2779 10.07641,-2.5191 l 5.19901,-0.16066 v -1.31313 q 0,-4.55585 -4.66304,-4.55585 -3.59105,0 -8.44169,2.17072 l -2.70665,-5.52056 q 5.17218,-2.7067 11.46994,-2.7067 6.02975,0 9.2456,2.62627 3.21593,2.62632 3.21593,7.98612 v 19.96522 z m -2.41187,-13.88184 -3.16233,0.10726 q -3.56422,0.10726 -5.30611,1.28634 -1.74198,1.17917 -1.74198,3.59109 0,3.45705 3.96625,3.45705 2.84065,0 4.52903,-1.63475 1.71514,-1.6347 1.71514,-4.3414 z m -4.44861,-19.37566 q -1.68839,-1.17916 -4.95782,-3.80548 -3.26944,-2.65311 -5.09184,-4.42184 v -0.56276 h 9.16526 q 1.6883,2.70669 6.29776,8.0665 v 0.72358 z"
         style="font-style:normal;font-variant:normal;font-weight:bold;font-stretch:normal;font-size:11px;line-height:normal;font-family:'Open Sans', sans-serif;fill:#00692c;fill-opacity:1;stroke-width:4.98948;shape-rendering:geometricPrecision;text-rendering:geometricPrecision"
         id="path892"
         inkscape:connector-curvature="0" />
      <path
         d="m 317.47576,-249.54521 v -39.18012 h 8.30769 v 39.18012 z"
         style="font-style:normal;font-variant:normal;font-weight:bold;font-stretch:normal;font-size:11px;line-height:normal;font-family:'Open Sans', sans-serif;fill:#00692c;fill-opacity:1;stroke-width:4.98948;shape-rendering:geometricPrecision;text-rendering:geometricPrecision"
         id="path894"
         inkscape:connector-curvature="0" />
      <path
         d="m 362.71247,-249.54521 h -8.17372 v -17.49972 q 0,-3.24266 -1.15232,-4.85062 -1.15237,-1.63476 -3.67147,-1.63476 -3.43025,0 -4.95785,2.30475 -1.52753,2.27789 -1.52753,7.5841 v 14.09625 h -8.17368 v -29.96126 h 6.24416 l 1.09878,3.83228 h 0.45553 q 1.36673,-2.17073 3.75185,-3.26951 2.41192,-1.12552 5.46698,-1.12552 5.22583,0 7.93253,2.84065 2.70669,2.81392 2.70669,8.14694 z"
         style="font-style:normal;font-variant:normal;font-weight:bold;font-stretch:normal;font-size:11px;line-height:normal;font-family:'Open Sans', sans-serif;fill:#00692c;fill-opacity:1;stroke-width:4.98948;shape-rendering:geometricPrecision;text-rendering:geometricPrecision"
         id="path896"
         inkscape:connector-curvature="0" />
      <path
         d="m 387.74272,-273.36949 h -7.07494 v 23.82428 h -8.17367 v -23.82428 h -4.50227 v -3.93946 l 4.50227,-2.19752 v -2.19752 q 0,-5.11861 2.51909,-7.47689 2.5191,-2.35833 8.06649,-2.35833 4.23424,0 7.53054,1.25955 l -2.09034,6.003 q -2.46551,-0.77721 -4.55585,-0.77721 -1.74193,0 -2.5191,1.04519 -0.77716,1.01836 -0.77716,2.62627 v 1.87594 h 7.07494 z"
         style="font-style:normal;font-variant:normal;font-weight:bold;font-stretch:normal;font-size:11px;line-height:normal;font-family:'Open Sans', sans-serif;fill:#00692c;fill-opacity:1;stroke-width:4.98948;shape-rendering:geometricPrecision;text-rendering:geometricPrecision"
         id="path898"
         inkscape:connector-curvature="0" />
      <path
         d="m 398.91787,-264.57942 q 0,4.44863 1.44716,6.72652 1.47393,2.27794 4.77023,2.27794 3.26947,0 4.68982,-2.2511 1.44715,-2.27794 1.44715,-6.75336 0,-4.44862 -1.44715,-6.67294 -1.44715,-2.22431 -4.7434,-2.22431 -3.26952,0 -4.71665,2.22431 -1.44716,2.19753 -1.44716,6.67294 z m 20.71564,0 q 0,7.31614 -3.85907,11.44317 -3.85907,4.12706 -10.7464,4.12706 -4.3146,0 -7.61091,-1.87595 -3.29626,-1.90273 -5.06496,-5.44018 -1.76879,-3.53749 -1.76879,-8.2541 0,-7.34292 3.83227,-11.41639 3.83228,-4.07341 10.7732,-4.07341 4.31466,0 7.61092,1.87589 3.2963,1.87594 5.06501,5.3866 1.76873,3.5107 1.76873,8.22731 z"
         style="font-style:normal;font-variant:normal;font-weight:bold;font-stretch:normal;font-size:11px;line-height:normal;font-family:'Open Sans', sans-serif;fill:#00692c;fill-opacity:1;stroke-width:4.98948;shape-rendering:geometricPrecision;text-rendering:geometricPrecision"
         id="path900"
         inkscape:connector-curvature="0" />
      <path
         d="m 443.10941,-280.06922 q 1.66155,0 2.7603,0.24098 l -0.61638,7.6645 q -0.99158,-0.26794 -2.41187,-0.26794 -3.91265,0 -6.11017,2.00993 -2.17075,2.0099 -2.17075,5.62778 v 15.24861 h -8.17366 v -29.96126 h 6.19057 l 1.20594,5.03823 h 0.40218 q 1.39353,-2.51913 3.75188,-4.04667 2.38504,-1.55431 5.17218,-1.55431 z"
         style="font-style:normal;font-variant:normal;font-weight:bold;font-stretch:normal;font-size:11px;line-height:normal;font-family:'Open Sans', sans-serif;fill:#00692c;fill-opacity:1;stroke-width:4.98948;shape-rendering:geometricPrecision;text-rendering:geometricPrecision"
         id="path902"
         inkscape:connector-curvature="0" />
      <path
         d="m 478.18928,-249.54521 h -8.17367 v -17.49972 q 0,-3.24266 -1.09876,-4.85062 -1.07192,-1.63476 -3.40352,-1.63476 -3.13543,0 -4.55579,2.30475 -1.42029,2.30468 -1.42029,7.5841 v 14.09625 h -8.17375 v -29.96126 h 6.24418 l 1.09875,3.83228 h 0.45554 q 1.20594,-2.06355 3.48387,-3.21587 2.27794,-1.17916 5.22577,-1.17916 6.72655,0 9.11166,4.39503 h 0.72364 q 1.20593,-2.09035 3.53738,-3.24271 2.35836,-1.15232 5.30626,-1.15232 5.09176,0 7.6913,2.62626 2.6263,2.59952 2.6263,8.36133 v 19.53642 h -8.20051 v -17.49972 q 0,-3.24266 -1.09875,-4.85062 -1.07193,-1.63476 -3.40345,-1.63476 -3.0015,0 -4.50228,2.14394 -1.47388,2.14391 -1.47388,6.80695 z"
         style="font-style:normal;font-variant:normal;font-weight:bold;font-stretch:normal;font-size:11px;line-height:normal;font-family:'Open Sans', sans-serif;fill:#00692c;fill-opacity:1;stroke-width:4.98948;shape-rendering:geometricPrecision;text-rendering:geometricPrecision"
         id="path904"
         inkscape:connector-curvature="0" />
      <path
         d="m 524.31031,-249.54521 -1.58105,-4.07342 h -0.21458 q -2.06358,2.59948 -4.26109,3.61784 -2.17069,0.9916 -5.68139,0.9916 -4.3146,0 -6.80689,-2.46555 -2.46554,-2.4655 -2.46554,-7.0213 0,-4.77025 3.32311,-7.02136 3.34986,-2.2779 10.07641,-2.51909 l 5.19901,-0.16066 v -1.31314 q 0,-4.55583 -4.66305,-4.55583 -3.59105,0 -8.44162,2.17072 l -2.70672,-5.52058 q 5.17218,-2.70668 11.46995,-2.70668 6.02974,0 9.24567,2.62626 3.21585,2.62632 3.21585,7.98611 v 19.96523 z m -2.41186,-13.88185 -3.16234,0.10726 q -3.56422,0.10726 -5.30611,1.28634 -1.74197,1.17917 -1.74197,3.59109 0,3.45706 3.96624,3.45706 2.84065,0 4.52904,-1.63476 1.71514,-1.6347 1.71514,-4.34139 z"
         style="font-style:normal;font-variant:normal;font-weight:bold;font-stretch:normal;font-size:11px;line-height:normal;font-family:'Open Sans', sans-serif;fill:#00692c;fill-opacity:1;stroke-width:4.98948;shape-rendering:geometricPrecision;text-rendering:geometricPrecision"
         id="path906"
         inkscape:connector-curvature="0" />
      <path
         d="m 550.57338,-249.00919 q -13.98907,0 -13.98907,-15.35584 0,-7.6377 3.80548,-11.65757 3.8054,-4.04662 10.90715,-4.04662 5.19901,0 9.32602,2.03669 l -2.41187,6.32458 q -1.9295,-0.77716 -3.59105,-1.25955 -1.66155,-0.50917 -3.3231,-0.50917 -6.37819,0 -6.37819,9.05805 0,8.79003 6.37819,8.79003 2.35828,0 4.36819,-0.61636 2.00992,-0.64318 4.01991,-1.9831 v 6.99451 q -1.98316,1.25959 -4.01991,1.74197 -2.00991,0.48248 -5.09175,0.48248 z m 5.11859,6.16376 q 0,3.43027 -2.03675,4.9578 -2.00992,1.52754 -6.24418,1.52754 -2.09026,0 -3.91265,-0.56277 v -4.50226 q 0.72356,0.1876 1.92957,0.37521 1.23276,0.1876 1.90274,0.1876 1.92949,0 1.92949,-1.66155 0,-2.22431 -4.44862,-2.8943 l 2.09034,-4.12705 h 5.17218 l -0.72356,1.63476 q 1.98316,0.64319 3.16226,1.98311 1.17918,1.36678 1.17918,3.08191 z"
         style="font-style:normal;font-variant:normal;font-weight:bold;font-stretch:normal;font-size:11px;line-height:normal;font-family:'Open Sans', sans-serif;fill:#00692c;fill-opacity:1;stroke-width:4.98948;shape-rendering:geometricPrecision;text-rendering:geometricPrecision"
         id="path908"
         inkscape:connector-curvature="0" />
      <path
         d="m 585.62642,-249.54521 -1.58113,-4.07342 h -0.2145 q -2.06351,2.59948 -4.26102,3.61784 -2.17076,0.9916 -5.68139,0.9916 -4.31468,0 -6.80697,-2.46555 -2.46553,-2.4655 -2.46553,-7.0213 0,-4.77025 3.32303,-7.02136 3.34993,-2.2779 10.07648,-2.51909 l 5.19901,-0.16066 v -1.31314 q 0,-4.55583 -4.66304,-4.55583 -3.59105,0 -8.44169,2.17072 l -2.70672,-5.52058 q 5.17225,-2.70668 11.47001,-2.70668 6.02975,0 9.24568,2.62626 3.21585,2.62632 3.21585,7.98611 v 19.96523 z m -2.41187,-13.88185 -3.16226,0.10726 q -3.56429,0.10726 -5.30626,1.28634 -1.7419,1.17917 -1.7419,3.59109 0,3.45706 3.96625,3.45706 2.84072,0 4.52903,-1.63476 1.71514,-1.6347 1.71514,-4.34139 z m -8.3881,-22.18957 q -0.83074,0 -1.60796,0.72357 -0.75032,0.69679 -1.09876,2.14394 h -3.993 q 0.29485,-3.88587 2.19752,-6.08339 1.92949,-2.19752 5.09175,-2.19752 1.09876,0 2.144,0.45555 1.07193,0.42859 2.09026,0.96477 1.04517,0.50917 2.03668,0.93796 0.99158,0.42859 1.9564,0.42859 0.83074,0 1.58113,-0.69672 0.77715,-0.69679 1.12551,-2.14393 h 3.99308 q -0.29485,3.88586 -2.25111,6.08337 -1.92949,2.19752 -5.03824,2.19752 -1.09876,0 -2.17068,-0.42859 -1.04517,-0.45555 -2.09034,-0.96476 -1.01841,-0.53598 -2.00991,-0.96477 -0.99158,-0.45555 -1.95633,-0.45555 z"
         style="font-style:normal;font-variant:normal;font-weight:bold;font-stretch:normal;font-size:11px;line-height:normal;font-family:'Open Sans', sans-serif;fill:#00692c;fill-opacity:1;stroke-width:4.98948;shape-rendering:geometricPrecision;text-rendering:geometricPrecision"
         id="path910"
         inkscape:connector-curvature="0" />
      <path
         d="m 606.23486,-264.57942 q 0,4.44863 1.44712,6.72652 1.47395,2.27794 4.77022,2.27794 3.26952,0 4.68988,-2.2511 1.44712,-2.27794 1.44712,-6.75336 0,-4.44862 -1.44712,-6.67294 -1.44719,-2.22431 -4.74346,-2.22431 -3.26944,0 -4.71664,2.22431 -1.44712,2.19753 -1.44712,6.67294 z m 20.71561,0 q 0,7.31614 -3.85906,11.44317 -3.85899,4.12706 -10.74638,4.12706 -4.31461,0 -7.61096,-1.87595 -3.29619,-1.90273 -5.06492,-5.44018 -1.76873,-3.53749 -1.76873,-8.2541 0,-7.34292 3.83223,-11.41639 3.83224,-4.07341 10.77314,-4.07341 4.31469,0 7.61096,1.87589 3.29627,1.87594 5.065,5.3866 1.76872,3.5107 1.76872,8.22731 z"
         style="font-style:normal;font-variant:normal;font-weight:bold;font-stretch:normal;font-size:11px;line-height:normal;font-family:'Open Sans', sans-serif;fill:#00692c;fill-opacity:1;stroke-width:4.98948;shape-rendering:geometricPrecision;text-rendering:geometricPrecision"
         id="path912"
         inkscape:connector-curvature="0" />
      <path
         style="stroke:#00692c;stroke-width:44.9054;stroke-linecap:round;shape-rendering:geometricPrecision;text-rendering:geometricPrecision"
         d="m 182.81826,-303.89232 v 64.8633"
         id="path20"
         inkscape:connector-curvature="0"
         inkscape:export-filename="C:\Users\suitedoalex\sites\lei-acesso-informacao-logo-5.png"
         inkscape:export-xdpi="174.91348"
         inkscape:export-ydpi="174.91348" />
    </g>
  </g>
</svg>
