<?xml version="1.0" encoding="UTF-8" standalone="no"?>
<svg
   xmlns:dc="http://purl.org/dc/elements/1.1/"
   xmlns:cc="http://creativecommons.org/ns#"
   xmlns:rdf="http://www.w3.org/1999/02/22-rdf-syntax-ns#"
   xmlns:svg="http://www.w3.org/2000/svg"
   xmlns="http://www.w3.org/2000/svg"
   xmlns:sodipodi="http://sodipodi.sourceforge.net/DTD/sodipodi-0.dtd"
   xmlns:inkscape="http://www.inkscape.org/namespaces/inkscape"
   width="60.286461"
   height="41.10611"
   version="1.1"
   id="svg6"
   sodipodi:docname="libras-logo.svg"
   inkscape:version="0.92.2 (5c3e80d, 2017-08-06)">
  <metadata
     id="metadata12">
    <rdf:RDF>
      <cc:Work
         rdf:about="">
        <dc:format>image/svg+xml</dc:format>
        <dc:type
           rdf:resource="http://purl.org/dc/dcmitype/StillImage" />
        <dc:title></dc:title>
      </cc:Work>
    </rdf:RDF>
  </metadata>
  <defs
     id="defs10" />
  <sodipodi:namedview
     pagecolor="#ffffff"
     bordercolor="#666666"
     borderopacity="1"
     objecttolerance="10"
     gridtolerance="10"
     guidetolerance="10"
     inkscape:pageopacity="0"
     inkscape:pageshadow="2"
     inkscape:window-width="1600"
     inkscape:window-height="837"
     id="namedview8"
     showgrid="false"
     fit-margin-top="0"
     fit-margin-left="0"
     fit-margin-right="0"
     fit-margin-bottom="0"
     inkscape:zoom="8"
     inkscape:cx="57.034675"
     inkscape:cy="22.907072"
     inkscape:window-x="-8"
     inkscape:window-y="-8"
     inkscape:window-maximized="1"
     inkscape:current-layer="g4" />
  <g
     transform="translate(-252.30659,-231.71236)"
     id="g4">
    <text
       xml:space="preserve"
       style="font-style:normal;font-weight:normal;font-size:12px;line-height:1.25;font-family:sans-serif;letter-spacing:0px;word-spacing:0px;fill:#000000;fill-opacity:1;stroke:none"
       x="251.78316"
       y="272.74295"
       id="text869"><tspan
         sodipodi:role="line"
         id="tspan867"
         x="251.78316"
         y="272.74295"
         style="font-size:5.33333349px">LOGODOWNLOAD.ORG</tspan></text>
    <rect
       style="opacity:1;fill:#ffffff;fill-opacity:1;fill-rule:nonzero;stroke:none;stroke-width:0.43270704;stroke-linecap:butt;stroke-linejoin:bevel;stroke-miterlimit:4;stroke-dasharray:none;stroke-opacity:1;paint-order:stroke fill markers"
       id="rect871"
       width="25.44696"
       height="27.16663"
       x="269.63959"
       y="235.75233"
       inkscape:export-filename="C:\Users\suitedoalex\sites\libras-logo-liguagem-de-sinais-logo-7.png"
       inkscape:export-xdpi="165.34055"
       inkscape:export-ydpi="165.34055" />
    <path
       d="m 294.20384,241.12194 c -0.10004,0 -0.20008,-0.10001 -0.20008,-0.20001 0,-0.99999 -1.80072,-2.59999 -4.10165,-2.59999 h -2.50099 l -4.80192,3.6 -4.80192,-3.6 h -2.50101 c -2.40095,0 -4.10164,1.6 -4.10164,2.59999 0,0.10001 -0.10005,0.20001 -0.20008,0.20001 -0.10004,0 -0.20008,-0.10001 -0.20008,-0.20001 0,-1.39999 2.10085,-3.09999 4.60184,-3.09999 h 2.40097 l 0.60024,-0.60001 c 0.10004,-0.1 0.20007,-0.1 0.30012,0 l 3.90156,4.60001 3.90156,-4.60001 c 0.10005,-0.1 0.20007,-0.1 0.30012,0 l 0.60024,0.60001 h 2.40096 c 2.501,0 4.60184,1.7 4.60184,3.09999 0,0.10001 -0.10005,0.20001 -0.20008,0.20001 z m -3.00121,10.39999 c -0.10004,0.70001 -0.20007,1 -0.30011,1 0,0.10001 -0.10004,0.10001 -0.20008,0.10001 -0.10005,0 -0.10005,-0.10001 -0.10005,-0.20001 0,0 0.10005,-0.3 0.20008,-0.9 0.10004,-0.59999 -0.20008,-1.1 -0.20008,-1.1 0,-0.10001 0,-0.19999 0.10005,-0.19999 h 0.20008 v 0.1 c 0,0 0.30011,0.60001 0.20008,1.3 z m -1.00039,0.8 c 0,0.10001 -0.10005,0.10001 -0.20008,0.10001 -0.10005,0 -0.10005,-0.10001 -0.10005,-0.19999 0,0 0.10005,-0.30001 0.10005,-0.9 0,-0.60001 -0.30012,-1.1 -0.30012,-1.1 0,-0.1 0,-0.20001 0.10005,-0.20001 h 0.20008 v 0 c 0,0 0.30012,0.60001 0.30012,1.30001 0,0.69999 -0.10004,0.99999 -0.20008,0.99999 z m -0.70028,-0.4 c -0.30012,1.2 -0.80032,2.2 -0.90037,2.6 -0.20007,0.4 -0.30012,0.9 -0.20007,2.20001 0,1.29999 0,2.19999 -0.10005,2.49999 0,0.2 -0.20007,0.3 -0.40015,0.3 -0.20008,0 -0.30013,-0.1 -0.40016,-0.4 -0.10005,-0.5 -0.30012,-2.6 -0.30012,-2.9 0,-0.2 -0.20009,-0.4 -0.30012,-0.4 -0.10005,0 -0.20009,0.10001 -0.30012,0.50001 -0.20008,0.89999 -0.5002,3.09999 -0.60025,3.59999 -0.10004,0.5 -0.30012,0.6 -0.40015,0.6 h -0.10005 v 0 c -0.10005,0 -0.40016,0 -0.40016,-0.4 0,-0.5 0.40016,-3.5 0.40016,-3.79999 0,-0.20001 0,-0.30001 -0.10005,-0.30001 -0.10004,0 -0.10004,0.1 -0.20007,0.2 -0.30012,0.4 -1.70068,2.9 -2.10085,3.7 -0.10004,0.2 -0.20007,0.2 -0.40015,0.2 -0.10005,0 -0.20009,0 -0.30013,-0.10001 -0.10004,-0.1 -0.30012,-0.4 -0.20007,-0.6 0.10005,-0.2 1.50059,-3.4 1.70068,-3.8 0.10005,-0.3 0.10005,-0.49999 -0.10005,-0.49999 -0.10005,0 -0.20008,0.10001 -0.40017,0.19999 -0.50019,0.5 -2.40095,2.5 -2.70107,2.7 -0.10005,0.1 -0.20009,0.2 -0.30012,0.2 -0.10005,0 -0.20009,-0.1 -0.30012,-0.2 -0.20009,-0.2 -0.20009,-0.4 -0.10005,-0.6 0.20007,-0.2 2.60104,-3.3 3.0012,-4.1 0.40015,-0.69999 1.0004,-1.89999 -0.20009,-1.89999 h -0.20007 c -0.50021,0 -0.80033,0.1 -1.10045,0.1 -0.50019,0 -0.70028,-0.1 -0.80031,-0.1 -0.20009,-0.1 -0.60024,-0.30001 -0.50021,-0.60001 0.10005,-0.19999 0.70029,-0.10001 1.0004,-0.19999 l 0.20009,-0.1 c 0,0 1.10043,-0.3 1.80072,-0.7 0.70028,-0.4 2.30092,-1.10001 2.70108,-1.10001 0.20008,0 0.40015,-0.1 0.60024,-0.1 0.30012,0 0.60024,0 0.70028,0.1 0.30012,0.10001 0.60024,0.9 2.0008,1.50001 0,0 0.60024,0.59999 0.30012,1.79999 z m -11.70468,2.2 c -0.40016,-1.2 -0.60025,-2.29999 -0.60025,-2.69999 -0.10004,-0.4 -0.30012,-0.9 -1.00039,-1.90001 -0.70028,-0.99999 -1.20049,-1.79999 -1.30052,-2.1 -0.10005,-0.19999 0.10004,-0.49999 0.40015,-0.49999 0.10005,0 0.20009,0 0.30012,0.19999 0.40016,0.4 1.70068,2 1.90077,2.20001 0.10004,0.1 0.30012,0.19999 0.40015,0.19999 0.20009,0 0.20009,-0.1 0.10005,-0.59999 -0.30012,-0.9 -1.30053,-2.9 -1.5006,-3.3 -0.30012,-0.7 0.10004,-0.7 0.10004,-0.7 0,0 0.10005,-0.1 0.20009,-0.1 0.10004,0 0.20007,0 0.30012,0.19999 0.20007,0.4 1.60064,3.2 1.80071,3.4 0.10005,0.10001 0.20009,0.2 0.30012,0.2 0.10005,0 0.10005,-0.1 0.10005,-0.3 0,-0.5 -0.20008,-3.3 -0.30012,-4.19999 0,-0.30001 0.30012,-0.5 0.50019,-0.5 v 0 c 0.20009,0 0.40016,0.19999 0.50021,0.4 0.10005,0.19999 0.60024,3.7 0.70028,4.19999 0,0.2 0.20008,0.4 0.30012,0.4 0.10004,0 0.20007,-0.1 0.30012,-0.4 0.10005,-0.7 0.70028,-3.39999 0.70028,-3.69999 0,-0.30001 0.20008,-0.4 0.40015,-0.4 h 0.10005 c 0.20009,0 0.40017,0.2 0.40017,0.49999 0,0.30001 -0.30012,3.7 -0.20008,4.80001 -0.5002,0.19999 -1.0004,0.4 -1.30052,0.4 v 0 0 l -0.20009,0.1 h -0.20007 c -0.40016,0 -1.0004,0 -1.30052,0.60001 -0.10005,0.29999 -0.20009,0.59999 -0.10005,0.8 0.20008,0.5 0.80033,0.79999 0.90036,0.9 v 0 c 0.20009,0.1 0.50021,0.19999 1.10045,0.19999 0.30012,0 0.60024,0 1.10044,-0.10001 l -0.30013,0.6 -0.10004,0.10001 c -0.20009,0.29999 -0.80033,1.2 -1.80073,2.5 h -0.50019 c -0.30012,0 -0.60024,0 -0.90036,0.10001 0,0 -0.80033,-0.10001 -1.30052,-1.3 z m 0.80031,2.20001 c 0,0.10001 -0.10005,0.10001 -0.20007,0.10001 h -0.10005 c 0,0 -0.60023,-0.2 -1.0004,-0.8 -0.40016,-0.6 -0.50019,-0.9 -0.50019,-0.9 0,-0.1 0,-0.2 0.10004,-0.2 0.10005,0 0.20009,0 0.20009,0.1 0,0 0.10004,0.3 0.40016,0.8 0.40015,0.50001 0.90036,0.7 0.90036,0.7 0.10004,0 0.10004,0.1 0.10004,0.20001 z m -0.90035,0.4 c 0,0.10001 -0.10005,0.10001 -0.10005,0.10001 h -0.10004 c 0,0 -0.60025,-0.3 -0.90037,-0.89999 -0.40015,-0.60001 -0.40015,-0.90001 -0.40015,-1.00001 0,-0.1 0.10004,-0.2 0.10004,-0.2 0.10005,0 0.20009,0.10001 0.20009,0.10001 0,0 0,0.30001 0.40015,0.8 0.30012,0.5 0.80033,0.8 0.80033,0.8 0.10005,0 0.10005,0.1 0.10005,0.2 z m -9.80417,-21.87789 0.002,29.00108 c 9.4993,-0.01 29.02899,0.008 29.02899,0.008 l -0.0116,-29.0098"
       id="path2-4-4"
       inkscape:connector-curvature="0"
       style="fill:#1c4f9c;stroke-width:1.00019991"
       sodipodi:nodetypes="ssscccssssscscccscsssccscscscccccscscsccsccccccscsscssccssscsssscsccssccsssccccsssccccccscscsscccssssscccscscsssscccccsccccsccccsccccscscscccccccccscccccccccc"
       inkscape:export-filename="C:\Users\suitedoalex\sites\libras-logo-liguagem-de-sinais-logo-7.png"
       inkscape:export-xdpi="165.34055"
       inkscape:export-ydpi="165.34055" />
  </g>
</svg>
