<?xml version="1.0" standalone="no"?>
<!DOCTYPE svg PUBLIC "-//W3C//DTD SVG 20010904//EN"
 "http://www.w3.org/TR/2001/REC-SVG-20010904/DTD/svg10.dtd">
<svg version="1.0" xmlns="http://www.w3.org/2000/svg"
 width="402.000000pt" height="257.000000pt" viewBox="0 0 402.000000 257.000000"
 preserveAspectRatio="xMidYMid meet">

<g transform="translate(0.000000,257.000000) scale(0.100000,-0.100000)"
fill="#000000" stroke="none">
<path d="M2240 2257 c-224 -76 -360 -277 -348 -513 l4 -84 -36 0 c-72 0 -227
32 -345 72 -224 75 -399 183 -572 354 l-102 102 -19 -42 c-32 -68 -43 -122
-43 -214 0 -151 60 -286 169 -383 l47 -42 -50 8 c-43 6 -84 19 -157 50 -23 9
-23 -14 -4 -107 38 -176 165 -320 332 -377 50 -17 55 -20 34 -25 -14 -3 -65
-7 -113 -9 l-88 -2 31 -62 c77 -154 221 -256 398 -282 l47 -6 -64 -44 c-154
-105 -328 -159 -540 -168 -154 -7 -154 -5 -7 -79 105 -52 276 -108 400 -129
104 -18 349 -20 462 -4 338 47 654 217 869 469 133 156 233 332 294 520 46
143 62 231 68 380 l6 135 93 88 c95 90 160 164 152 173 -3 2 -22 -3 -43 -11
-43 -19 -181 -55 -209 -55 -13 0 -4 12 30 40 27 22 62 57 77 78 28 36 91 152
84 152 -3 0 -38 -16 -79 -35 -42 -19 -113 -45 -159 -59 l-84 -24 -36 33 c-49
44 -113 81 -184 105 -83 29 -227 27 -315 -3z"/>
</g>
</svg>
